# xmcd CD database file
#
# Track frame offsets:
#	150
#	15627
#	29357
#	42510
#	51590
#	64765
#	86547
#	99027
#	115927
#	130665
#	143902
#	160137
#	177960
#
# Disc length: 2588 seconds
#
# Revision: 1
# Processed by: cddbd v1.5.2PL0 Copyright (c) Steve Scherf et al.
# Submitted via: CDex 1.79
#
DISCID=a90a1a0d
DTITLE=Joe Sun - Dixie And Me
DYEAR=1992
DGENRE=Country
TTITLE0=Dixie And Me
TTITLE1=Blow The Stars Out Of The Sky
TTITLE2=Jesus Was A Real Man
TTITLE3=The Animal Song
TTITLE4=Get My Ship Together
TTITLE5=Lucky
TTITLE6=Some Old Memory
TTITLE7=Lady Who Plays The Organ
TTITLE8=So Easy To Hold
TTITLE9=I`ve Never Been To Heaven
TTITLE10=The City
TTITLE11=Oh Ma
TTITLE12=When The Shit Hits The Fan
EXTD=YEAR: 1992
EXTT0=
EXTT1=
EXTT2=
EXTT3=
EXTT4=
EXTT5=
EXTT6=
EXTT7=
EXTT8=
EXTT9=
EXTT10=
EXTT11=
EXTT12=
PLAYORDER=
